<svg version="1.1" viewBox="0.0 0.0 245.66929133858267 245.66929133858267" fill="none" stroke="none" stroke-linecap="square" stroke-miterlimit="10" xmlns:xlink="http://www.w3.org/1999/xlink" xmlns="http://www.w3.org/2000/svg"><clipPath id="g2ec4c6c9a6d_0_0.0"><path d="m0 0l245.6693 0l0 245.6693l-245.6693 0l0 -245.6693z" clip-rule="nonzero"/></clipPath><g clip-path="url(#g2ec4c6c9a6d_0_0.0)"><path fill="#000000" fill-opacity="0.0" d="m0 0l245.6693 0l0 245.6693l-245.6693 0z" fill-rule="evenodd"/><path fill="#ffffff" d="m7.2125983 45.75405l0 0c0 -21.285856 17.255596 -38.541454 38.541454 -38.541454l154.1612 0l0 0c10.221832 0 20.024994 4.0606055 27.25293 11.28853c7.2279205 7.2279243 11.288528 17.031094 11.288528 27.252922l0 154.1612c0 21.285858 -17.2556 38.54146 -38.54146 38.54146l-154.1612 0c-21.285856 0 -38.541454 -17.2556 -38.541454 -38.54146z" fill-rule="evenodd"/><path stroke="#ff0000" stroke-width="12.0" stroke-linejoin="round" stroke-linecap="butt" d="m7.2125983 45.75405l0 0c0 -21.285856 17.255596 -38.541454 38.541454 -38.541454l154.1612 0l0 0c10.221832 0 20.024994 4.0606055 27.25293 11.28853c7.2279205 7.2279243 11.288528 17.031094 11.288528 27.252922l0 154.1612c0 21.285858 -17.2556 38.54146 -38.54146 38.54146l-154.1612 0c-21.285856 0 -38.541454 -17.2556 -38.541454 -38.54146z" fill-rule="evenodd"/><path fill="#ff0000" d="m46.21522 172.3937l0 0c0 -15.159576 12.289257 -27.448822 27.448818 -27.448822l0 0c7.2798843 0 14.261597 2.891922 19.409248 8.039566c5.1476517 5.1476593 8.039574 12.129364 8.039574 19.409256l0 0c0 15.159561 -12.289253 27.448807 -27.448822 27.448807l0 0c-15.159561 0 -27.448818 -12.289246 -27.448818 -27.448807z" fill-rule="evenodd"/><path stroke="#ff0000" stroke-width="8.0" stroke-linejoin="round" stroke-linecap="butt" d="m46.21522 172.3937l0 0c0 -15.159576 12.289257 -27.448822 27.448818 -27.448822l0 0c7.2798843 0 14.261597 2.891922 19.409248 8.039566c5.1476517 5.1476593 8.039574 12.129364 8.039574 19.409256l0 0c0 15.159561 -12.289253 27.448807 -27.448822 27.448807l0 0c-15.159561 0 -27.448818 -12.289246 -27.448818 -27.448807z" fill-rule="evenodd"/><path fill="#ff0000" d="m101.11286 98.385826l0 0c0 -31.736801 25.72776 -57.464565 57.46456 -57.464565l0 0c15.240555 0 29.856888 6.054283 40.63359 16.830982c10.776703 10.776695 16.830978 25.393036 16.830978 40.633583l0 0c0 31.736809 -25.727768 57.46456 -57.46457 57.46456l0 0c-31.736801 0 -57.46456 -25.727753 -57.46456 -57.46456z" fill-rule="evenodd"/><path stroke="#ff0000" stroke-width="8.0" stroke-linejoin="round" stroke-linecap="butt" d="m101.11286 98.385826l0 0c0 -31.736801 25.72776 -57.464565 57.46456 -57.464565l0 0c15.240555 0 29.856888 6.054283 40.63359 16.830982c10.776703 10.776695 16.830978 25.393036 16.830978 40.633583l0 0c0 31.736809 -25.727768 57.46456 -57.46457 57.46456l0 0c-31.736801 0 -57.46456 -25.727753 -57.46456 -57.46456z" fill-rule="evenodd"/></g></svg>